<?xml version="1.0" encoding="UTF-8"?>
<svg id="svg" version="1.1" width="2083" height="448" viewBox="0 0 2083 448" xmlns="http://www.w3.org/2000/svg" xmlns:xlink="http://www.w3.org/1999/xlink"><path d="M27.137 1.303 C 15.499 5.743,8.173 20.166,2.400 50.000 C -0.126 63.059,-0.727 115.501,1.466 131.539 C 3.617 147.269,6.266 160.198,9.969 173.033 L 12.988 183.500 12.994 243.292 C 13.001 310.092,13.195 312.481,19.683 325.364 C 29.335 344.530,49.480 355.434,71.985 353.672 C 85.406 352.621,96.243 347.669,104.691 338.728 C 110.602 332.472,114.048 326.747,117.169 318.000 C 119.478 311.530,119.491 311.210,119.994 249.000 C 120.399 199.026,120.773 185.971,121.860 183.860 C 124.763 178.227,131.406 177.639,134.737 182.720 C 136.360 185.195,136.541 190.466,137.018 248.954 L 137.535 312.500 140.311 320.750 C 148.814 346.019,173.277 358.869,200.029 352.116 C 217.192 347.783,228.922 335.595,233.984 316.834 C 236.120 308.921,236.184 307.065,236.355 248.101 C 236.483 203.764,236.850 186.776,237.721 184.802 C 240.756 177.923,247.986 177.500,251.248 184.011 C 252.853 187.212,252.998 192.326,253.016 246.000 C 253.037 311.713,253.126 312.741,259.973 326.634 C 268.314 343.558,285.504 354.000,305.024 354.000 C 311.939 354.000,324.744 350.399,330.730 346.772 C 341.418 340.294,349.090 329.745,353.030 316.109 L 355.329 308.154 358.310 312.327 C 372.520 332.216,392.833 346.268,416.500 352.580 C 428.716 355.838,451.415 357.009,463.821 355.021 C 496.378 349.806,524.365 329.956,538.464 302.081 L 541.205 296.662 544.901 303.686 C 554.860 322.613,573.606 339.075,594.273 347.045 C 635.441 362.921,694.577 355.021,719.674 330.292 C 723.262 326.757,726.305 324.007,726.437 324.182 C 726.569 324.357,727.737 326.750,729.033 329.500 C 730.329 332.250,733.890 337.005,736.945 340.067 C 752.234 355.389,779.325 358.315,797.084 346.563 L 800.907 344.033 807.732 347.501 C 833.439 360.561,868.970 357.927,897.742 340.831 C 910.002 333.546,925.853 315.220,933.613 299.359 L 936.311 293.843 940.484 301.856 C 945.751 311.973,951.185 319.022,960.637 328.000 C 975.806 342.409,995.594 351.930,1016.824 355.035 C 1029.876 356.943,1052.291 355.822,1064.331 352.658 C 1102.986 342.500,1131.070 312.107,1138.574 272.312 C 1139.877 265.401,1140.102 260.372,1139.614 249.000 C 1139.272 241.025,1138.725 232.850,1138.397 230.834 L 1137.801 227.167 1141.650 228.540 C 1143.768 229.295,1146.963 229.932,1148.750 229.956 L 1152.000 230.000 1152.000 258.869 C 1152.000 280.059,1152.400 290.029,1153.502 296.352 C 1158.882 327.203,1177.268 345.862,1209.000 352.675 C 1221.784 355.420,1251.478 355.140,1262.353 352.172 C 1272.722 349.343,1279.619 345.259,1286.398 337.936 C 1290.898 333.077,1292.377 330.571,1294.106 324.875 C 1299.881 305.865,1291.630 286.087,1274.734 278.436 C 1269.741 276.175,1266.659 275.528,1259.250 275.187 L 1250.000 274.761 1250.000 252.942 L 1250.000 231.123 1254.750 230.470 C 1271.429 228.178,1282.555 220.585,1288.820 207.218 C 1291.240 202.055,1291.500 200.385,1291.499 190.000 C 1291.498 179.610,1291.239 177.946,1288.811 172.765 C 1287.333 169.610,1284.947 165.485,1283.508 163.599 C 1278.055 156.450,1263.611 149.021,1255.093 148.985 C 1250.130 148.964,1249.420 148.212,1249.108 142.645 C 1248.465 131.180,1243.711 119.813,1236.200 111.783 C 1227.434 102.412,1216.517 98.000,1202.092 98.000 C 1174.795 98.000,1155.687 115.413,1152.522 143.173 L 1151.875 148.845 1147.688 149.540 C 1140.521 150.730,1131.385 155.520,1125.990 160.915 C 1121.047 165.857,1115.002 176.563,1115.001 180.377 C 1115.000 181.754,1113.067 180.422,1107.748 175.377 C 1086.604 155.325,1060.844 145.992,1030.153 147.267 C 991.651 148.866,957.839 170.225,939.928 204.262 L 936.316 211.127 933.581 204.813 C 925.651 186.512,909.059 168.552,890.930 158.647 C 869.285 146.821,845.063 143.977,822.250 150.582 C 820.031 151.224,820.000 151.103,819.980 141.867 C 819.927 116.793,814.145 101.937,801.032 93.180 C 778.703 78.269,747.622 84.415,732.352 106.760 C 724.279 118.573,723.711 121.822,723.066 159.862 L 722.500 193.223 717.649 186.120 C 701.939 163.114,669.576 147.035,638.926 147.009 C 608.208 146.983,580.327 158.410,560.348 179.216 C 554.157 185.663,545.465 198.048,543.065 203.843 C 542.346 205.579,541.474 206.989,541.129 206.975 C 540.783 206.961,539.012 203.862,537.192 200.088 C 527.360 179.692,504.598 160.558,480.574 152.493 C 451.424 142.708,418.541 145.970,392.500 161.230 C 379.163 169.045,366.099 180.832,359.216 191.261 L 356.500 195.375 355.926 184.438 C 355.610 178.422,355.721 171.925,356.174 170.000 C 358.485 160.163,362.043 135.374,363.090 121.815 C 366.506 77.574,358.453 25.467,345.616 8.745 C 339.860 1.247,338.134 0.498,326.674 0.519 C 317.394 0.535,315.820 0.829,308.762 3.857 C 283.806 14.564,253.511 41.079,233.867 69.408 C 230.686 73.995,229.910 74.489,221.982 76.983 C 209.129 81.025,199.517 86.443,191.360 94.241 L 187.221 98.200 179.470 92.041 C 168.953 83.683,158.284 78.375,145.254 75.019 C 141.787 74.126,140.238 72.877,136.813 68.212 C 116.766 40.915,80.349 13.058,51.500 2.953 C 44.099 0.361,31.792 -0.472,27.137 1.303 M1968.000 3.639 C 1966.625 3.841,1962.125 4.505,1958.000 5.115 C 1917.110 11.161,1882.333 42.819,1871.890 83.500 C 1870.002 90.855,1869.573 95.195,1869.540 107.250 L 1869.500 122.000 1613.460 122.000 C 1331.565 122.000,1353.077 121.520,1339.256 128.116 C 1331.197 131.963,1319.767 143.163,1315.275 151.617 C 1308.986 163.453,1309.030 162.794,1309.030 245.500 C 1309.030 308.131,1309.273 321.532,1310.506 326.760 C 1314.796 344.956,1329.092 360.361,1348.000 367.162 L 1354.500 369.500 1626.000 369.500 L 1897.500 369.500 1904.602 366.902 C 1922.408 360.387,1935.019 346.790,1940.726 327.955 C 1942.164 323.207,1942.407 315.308,1942.603 267.000 C 1942.781 222.941,1943.087 211.564,1944.088 211.808 C 1944.781 211.978,1947.858 212.775,1950.924 213.580 C 1961.842 216.446,1975.353 217.396,1987.085 216.124 C 2012.400 213.378,2032.623 204.003,2050.791 186.591 C 2078.156 160.366,2089.216 119.231,2078.927 81.950 C 2076.378 72.713,2069.520 58.055,2063.536 49.054 C 2053.833 34.458,2035.058 18.740,2019.449 12.144 C 2003.180 5.269,1981.412 1.671,1968.000 3.639 M332.398 14.099 C 344.049 23.263,352.610 74.525,349.962 119.269 C 348.931 136.694,347.996 145.329,347.223 144.556 C 346.928 144.261,345.426 140.881,343.884 137.043 C 342.342 133.206,338.198 125.623,334.674 120.194 C 318.506 95.278,297.523 80.461,270.513 74.887 C 265.556 73.863,258.688 73.020,255.250 73.013 C 251.813 73.006,249.000 72.567,249.000 72.038 C 249.000 70.220,263.650 53.493,272.571 45.124 C 291.251 27.600,316.430 12.340,327.115 12.067 C 328.553 12.030,330.931 12.944,332.398 14.099 M51.935 17.047 C 69.520 23.855,87.925 36.953,107.995 56.941 L 123.500 72.382 114.179 73.158 C 76.096 76.327,44.865 98.238,26.743 134.500 C 24.819 138.350,22.432 144.088,21.440 147.250 C 20.447 150.413,19.323 153.000,18.943 153.000 C 17.998 153.000,15.113 134.122,13.823 119.500 C 12.494 104.427,13.409 68.495,15.426 56.500 C 17.883 41.898,21.912 26.860,24.803 21.500 C 29.803 12.230,36.609 11.113,51.935 17.047 M1999.908 18.936 C 2026.537 25.863,2049.541 45.409,2061.484 71.259 C 2067.747 84.814,2069.474 93.467,2069.414 111.000 C 2069.352 129.165,2067.668 136.948,2060.647 151.500 C 2046.441 180.947,2019.562 200.080,1986.771 204.087 C 1965.546 206.680,1940.480 200.435,1923.685 188.369 L 1918.602 184.717 1908.051 185.860 C 1894.016 187.380,1890.444 187.301,1888.571 185.429 C 1886.272 183.129,1886.548 180.767,1890.634 167.797 L 1894.321 156.094 1890.700 148.171 C 1884.277 134.121,1882.492 125.535,1882.556 109.000 C 1882.604 96.420,1882.973 93.180,1885.340 84.532 C 1894.928 49.505,1922.801 24.560,1960.334 17.417 C 1970.614 15.461,1989.305 16.179,1999.908 18.936 M1957.280 37.921 C 1948.783 40.010,1936.691 45.691,1937.603 47.166 C 1938.339 48.358,1951.893 55.000,1953.589 55.000 C 1954.219 55.000,1955.859 53.313,1957.233 51.250 C 1958.607 49.188,1962.228 44.913,1965.280 41.750 L 1970.827 36.000 1967.664 36.074 C 1965.924 36.114,1961.251 36.946,1957.280 37.921 M1985.394 40.588 C 1981.096 43.451,1968.381 55.553,1966.952 58.141 C 1966.170 59.559,1967.509 60.138,1976.773 62.387 C 1989.127 65.386,2000.995 67.338,2001.826 66.507 C 2003.428 64.905,1994.179 42.003,1990.817 39.247 C 1989.558 38.215,1988.601 38.452,1985.394 40.588 M309.787 42.920 C 307.255 44.526,303.321 47.522,301.046 49.577 C 296.659 53.541,285.000 67.581,285.000 68.901 C 285.000 69.331,286.913 70.256,289.250 70.955 C 298.593 73.751,310.450 80.792,319.950 89.185 C 323.757 92.549,325.716 93.684,326.450 92.950 C 327.100 92.300,327.500 85.532,327.500 75.200 C 327.500 42.920,322.927 34.587,309.787 42.920 M40.026 44.198 C 37.527 48.306,36.212 54.553,35.396 66.183 C 34.724 75.767,36.175 91.095,38.168 95.470 C 39.233 97.807,39.381 97.727,48.320 89.935 C 54.710 84.365,60.511 80.445,67.946 76.671 C 73.751 73.725,79.165 71.097,79.979 70.831 C 82.123 70.130,79.564 66.564,70.182 57.182 C 59.932 46.932,51.020 41.000,45.871 41.000 C 42.556 41.000,41.679 41.480,40.026 44.198 M2010.031 50.254 C 2011.580 54.243,2013.401 59.705,2014.077 62.392 L 2015.307 67.276 2024.262 66.696 C 2029.188 66.377,2033.455 65.879,2033.744 65.589 C 2034.609 64.724,2031.246 60.258,2025.939 55.225 C 2021.447 50.965,2009.711 43.000,2007.926 43.000 C 2007.534 43.000,2008.481 46.264,2010.031 50.254 M1920.879 59.244 C 1914.156 66.172,1907.854 76.495,1904.439 86.171 C 1903.157 89.807,1903.197 90.010,1905.297 90.506 C 1912.766 92.269,1936.298 97.013,1936.422 96.780 C 1936.503 96.626,1937.848 92.450,1939.409 87.500 C 1940.971 82.550,1943.491 75.740,1945.009 72.367 L 1947.769 66.234 1942.683 63.867 C 1939.885 62.565,1935.158 60.038,1932.177 58.250 C 1929.196 56.463,1926.362 55.000,1925.878 55.000 C 1925.394 55.000,1923.144 56.910,1920.879 59.244 M1956.655 75.750 C 1952.142 84.764,1947.747 99.970,1949.639 100.025 C 1950.112 100.039,1962.425 102.468,1977.000 105.423 C 2000.741 110.236,2003.565 110.624,2004.124 109.148 C 2005.372 105.854,2006.000 93.333,2005.259 86.510 L 2004.500 79.520 1994.295 78.254 C 1988.682 77.558,1978.864 75.641,1972.477 73.994 C 1966.091 72.347,1960.453 71.000,1959.949 71.000 C 1959.446 71.000,1957.964 73.138,1956.655 75.750 M2039.427 77.018 C 2037.659 77.689,2021.491 79.990,2018.500 79.996 C 2017.883 79.998,2017.621 83.538,2017.817 89.249 C 2017.992 94.337,2017.735 101.774,2017.245 105.776 C 2016.401 112.678,2016.462 113.076,2018.428 113.544 C 2027.768 115.765,2049.573 119.764,2050.207 119.372 C 2051.561 118.536,2051.079 104.299,2049.427 96.300 C 2047.622 87.559,2044.482 78.631,2042.712 77.206 C 2042.039 76.664,2040.578 76.580,2039.427 77.018 M142.590 87.994 C 158.022 91.885,172.257 100.876,182.555 113.236 C 184.725 115.840,186.725 117.953,187.000 117.930 C 187.275 117.907,189.750 115.184,192.500 111.879 C 202.165 100.264,218.276 90.526,233.000 87.403 C 243.368 85.203,263.627 85.976,273.961 88.966 C 283.740 91.795,296.930 98.685,304.843 105.100 C 322.881 119.721,336.823 146.465,341.527 175.470 C 343.708 188.913,343.652 299.609,341.460 308.907 C 335.802 332.913,315.245 345.825,293.299 339.159 C 281.137 335.465,273.283 327.362,268.673 313.748 C 266.637 307.734,266.535 305.174,265.973 245.500 C 265.548 200.428,265.052 182.485,264.156 179.781 C 260.143 167.676,246.911 162.681,234.929 168.750 C 230.278 171.106,229.070 172.349,226.500 177.427 L 223.500 183.354 222.941 246.427 C 222.349 313.297,222.425 312.261,217.352 322.286 C 213.829 329.247,208.604 334.556,202.161 337.720 C 197.177 340.168,195.364 340.500,187.000 340.500 C 178.856 340.500,176.708 340.129,171.954 337.899 C 164.405 334.358,159.890 330.155,156.255 323.285 C 150.503 312.414,150.660 314.367,150.058 246.000 C 149.546 187.678,149.353 182.174,147.697 178.500 C 143.756 169.758,136.272 165.398,126.586 166.201 C 118.805 166.847,113.570 170.551,110.161 177.823 L 107.500 183.500 106.995 245.500 C 106.500 306.307,106.448 307.612,104.292 313.332 C 99.450 326.177,92.360 334.085,82.000 338.194 C 74.126 341.317,59.804 341.281,51.753 338.117 C 40.642 333.750,31.160 322.190,27.871 309.000 C 26.783 304.636,26.501 290.691,26.503 241.500 L 26.505 179.500 29.143 168.500 C 37.568 133.358,55.292 108.914,82.113 95.443 C 89.906 91.529,100.470 87.958,108.000 86.693 C 109.375 86.461,115.941 86.211,122.590 86.136 C 131.715 86.033,136.620 86.489,142.590 87.994 M783.856 99.449 C 794.351 102.243,800.809 108.500,804.095 119.058 C 805.740 124.342,806.000 128.377,806.000 148.589 C 806.000 161.465,806.212 172.000,806.470 172.000 C 806.729 172.000,809.625 170.635,812.907 168.968 C 826.811 161.902,840.558 159.358,855.596 161.067 C 891.517 165.148,920.552 192.991,928.676 231.147 C 930.985 241.993,930.969 262.536,928.642 272.853 C 921.094 306.325,897.318 331.875,866.000 340.167 C 853.657 343.435,835.452 343.427,825.012 340.149 C 815.354 337.116,810.602 334.701,804.792 329.868 L 800.085 325.953 795.934 330.456 C 793.651 332.933,789.244 336.206,786.142 337.730 C 781.160 340.176,779.389 340.497,771.000 340.472 C 762.713 340.447,760.780 340.093,755.857 337.700 C 746.015 332.914,739.159 323.720,737.091 312.535 C 735.665 304.819,735.615 141.438,737.036 131.608 C 738.790 119.473,743.983 110.308,752.349 104.582 C 761.212 98.514,773.081 96.581,783.856 99.449 M1900.410 105.630 C 1899.015 113.062,1902.671 132.515,1907.090 141.176 L 1909.145 145.205 1913.823 144.445 C 1916.395 144.026,1921.760 143.418,1925.744 143.092 L 1932.987 142.500 1933.244 125.750 C 1933.385 116.537,1933.488 109.000,1933.473 109.000 C 1933.458 109.000,1926.157 107.475,1917.247 105.612 L 1901.049 102.224 1900.410 105.630 M1219.070 115.144 C 1230.870 121.605,1235.814 131.253,1236.729 149.612 L 1237.284 160.725 1247.089 161.265 C 1257.524 161.840,1265.863 164.663,1270.846 169.308 C 1277.621 175.622,1280.732 189.268,1277.570 198.791 C 1273.156 212.077,1265.299 217.091,1247.755 217.814 L 1237.000 218.257 1237.000 248.563 C 1237.000 265.232,1237.422 279.981,1237.939 281.339 C 1240.075 286.957,1242.514 288.000,1253.510 288.000 C 1266.508 288.000,1271.663 289.674,1276.864 295.583 C 1289.427 309.856,1281.783 332.978,1262.684 338.474 C 1245.583 343.395,1219.488 342.956,1203.500 337.478 C 1190.879 333.154,1182.985 327.608,1176.457 318.479 C 1166.487 304.538,1165.000 295.909,1165.000 252.012 L 1165.000 218.245 1156.169 217.822 C 1141.683 217.130,1132.267 211.102,1128.528 200.128 C 1125.253 190.515,1127.447 179.182,1134.031 171.702 C 1139.693 165.270,1146.890 162.067,1156.720 161.603 L 1164.500 161.236 1165.102 150.868 C 1165.785 139.091,1166.372 136.331,1169.543 129.980 C 1172.055 124.951,1180.442 116.584,1184.722 114.839 C 1191.800 111.953,1196.967 111.037,1204.570 111.321 C 1211.606 111.584,1213.463 112.073,1219.070 115.144 M1945.496 115.250 C 1945.170 117.038,1945.037 123.896,1945.201 130.492 L 1945.500 142.484 1951.000 143.256 C 1962.048 144.805,1978.106 148.144,1983.600 150.035 C 1986.699 151.101,1989.690 151.692,1990.247 151.348 C 1991.816 150.377,1997.692 137.079,1999.629 130.111 C 2001.638 122.884,2001.437 122.573,1994.085 121.523 C 1991.563 121.162,1980.360 118.873,1969.189 116.434 C 1958.017 113.995,1948.250 112.000,1947.484 112.000 C 1946.701 112.000,1945.831 113.423,1945.496 115.250 M2013.576 127.250 C 2011.959 132.854,2008.160 142.747,2005.290 148.832 C 2003.387 152.865,2001.981 156.285,2002.165 156.432 C 2002.349 156.579,2007.553 159.305,2013.728 162.491 C 2026.666 169.164,2025.000 169.522,2034.214 158.084 C 2039.639 151.349,2045.690 140.500,2047.461 134.331 C 2048.210 131.720,2048.747 131.908,2030.904 128.555 C 2015.356 125.633,2014.071 125.536,2013.576 127.250 M1876.077 143.250 L 1879.509 152.500 1620.505 152.500 L 1361.500 152.500 1356.196 155.438 C 1349.585 159.101,1344.550 164.597,1341.135 171.880 L 1338.500 177.500 1338.500 248.500 L 1338.500 319.500 1341.385 325.747 C 1344.533 332.563,1350.201 338.470,1357.151 342.179 L 1361.500 344.500 1623.365 344.757 C 1792.023 344.923,1886.525 344.666,1888.865 344.035 C 1895.617 342.215,1903.147 336.818,1907.147 330.930 C 1913.967 320.892,1914.000 320.532,1914.000 255.290 C 1914.000 223.230,1914.256 197.000,1914.570 197.000 C 1914.883 197.000,1917.021 198.287,1919.320 199.859 C 1921.619 201.432,1924.963 203.469,1926.750 204.385 L 1930.000 206.051 1930.000 262.816 C 1930.000 326.743,1930.000 326.739,1922.792 337.813 C 1917.947 345.256,1912.582 349.905,1904.430 353.723 L 1898.500 356.500 1626.000 356.500 L 1353.500 356.500 1347.000 353.315 C 1335.126 347.496,1327.903 339.585,1324.067 328.199 C 1322.050 322.211,1322.000 320.236,1322.000 246.213 C 1322.000 179.864,1322.199 169.683,1323.588 164.932 C 1327.741 150.731,1340.320 139.073,1355.459 135.395 C 1359.364 134.446,1418.178 134.151,1616.573 134.085 L 1872.645 134.000 1876.077 143.250 M1916.027 155.863 C 1912.947 156.428,1912.198 157.234,1909.399 163.000 C 1907.664 166.575,1906.381 169.654,1906.548 169.843 C 1906.716 170.032,1910.837 169.622,1915.708 168.933 L 1924.563 167.679 1929.373 171.351 C 1935.520 176.044,1942.936 180.397,1943.619 179.714 C 1943.910 179.424,1943.440 177.818,1942.575 176.145 C 1941.710 174.473,1939.673 169.144,1938.048 164.303 L 1935.093 155.500 1927.296 155.363 C 1923.008 155.288,1917.937 155.513,1916.027 155.863 M1948.366 158.078 C 1949.378 163.138,1954.128 174.226,1957.672 179.803 L 1961.043 185.106 1964.271 182.838 C 1969.261 179.332,1983.160 164.980,1982.751 163.754 C 1982.094 161.782,1967.134 157.884,1951.634 155.646 C 1947.788 155.091,1947.771 155.103,1948.366 158.078 M461.619 161.527 C 473.474 163.564,478.825 165.361,489.306 170.824 C 511.477 182.379,527.403 202.667,534.190 228.000 C 537.151 239.053,537.419 263.494,534.698 274.353 C 530.342 291.740,522.930 305.021,510.918 316.966 C 497.382 330.427,481.192 338.818,462.467 342.079 C 451.268 344.029,429.280 342.776,418.579 339.577 C 392.440 331.762,372.962 315.305,362.100 291.859 C 356.291 279.318,354.810 272.521,354.290 256.000 C 353.764 239.301,355.523 228.811,361.093 215.430 C 367.189 200.787,379.796 185.429,393.404 176.066 C 412.304 163.063,438.309 157.520,461.619 161.527 M660.500 162.947 C 664.900 164.052,673.143 167.280,678.819 170.121 C 701.766 181.607,716.998 202.605,721.561 229.042 C 724.745 247.495,720.447 260.177,709.125 265.737 L 703.500 268.500 655.250 268.786 C 628.713 268.944,607.000 269.214,607.000 269.387 C 607.000 269.560,607.521 271.231,608.159 273.101 C 611.373 282.531,620.306 290.383,631.429 293.555 C 635.925 294.837,639.794 295.128,647.429 294.756 C 658.966 294.194,664.443 292.379,675.706 285.387 C 684.834 279.719,691.738 278.113,699.745 279.792 C 707.257 281.368,712.820 285.483,716.250 292.002 C 726.972 312.380,706.644 332.476,667.837 339.862 C 647.044 343.819,631.778 343.571,612.164 338.957 C 580.840 331.589,557.713 309.588,548.400 278.297 C 545.225 267.628,544.054 248.254,545.932 237.469 C 552.351 200.606,577.965 172.415,613.269 163.355 C 627.944 159.589,646.485 159.429,660.500 162.947 M1058.233 162.884 C 1101.614 174.249,1128.770 211.578,1126.700 257.000 C 1124.902 296.443,1100.353 327.958,1062.282 339.698 C 1054.077 342.228,1052.284 342.406,1035.000 342.406 C 1017.716 342.406,1015.923 342.228,1007.718 339.698 C 981.046 331.474,962.495 315.813,950.969 291.790 C 945.161 279.687,943.003 270.725,942.349 256.000 C 941.897 245.828,942.164 241.716,943.781 233.925 C 947.570 215.673,956.228 199.941,969.665 186.891 C 984.611 172.376,1001.562 164.110,1023.500 160.639 C 1030.238 159.573,1050.626 160.891,1058.233 162.884 M1875.050 165.526 C 1878.532 167.326,1878.459 166.775,1876.316 175.137 C 1874.908 180.632,1874.820 182.457,1875.807 185.751 C 1878.445 194.555,1883.991 198.355,1894.250 198.389 L 1901.000 198.412 1901.000 257.092 L 1901.000 315.772 1898.206 321.120 C 1896.171 325.015,1894.085 327.289,1890.534 329.485 L 1885.657 332.500 1625.415 332.500 L 1365.172 332.500 1360.836 329.494 C 1357.996 327.525,1355.551 324.617,1353.750 321.064 L 1351.000 315.641 1351.000 248.970 C 1351.000 201.787,1351.333 181.305,1352.138 178.899 C 1354.007 173.316,1357.954 168.930,1363.383 166.402 L 1368.500 164.020 1620.300 164.010 C 1844.062 164.001,1872.428 164.170,1875.050 165.526 M1992.766 170.778 C 1991.391 172.856,1987.509 177.356,1984.139 180.778 C 1978.279 186.730,1978.132 186.999,1980.757 186.983 C 1986.412 186.947,1997.600 183.911,2005.170 180.359 C 2009.477 178.338,2013.000 176.406,2013.000 176.065 C 2013.000 175.538,1996.628 167.000,1995.618 167.000 C 1995.424 167.000,1994.141 168.700,1992.766 170.778 M1389.753 177.050 C 1380.670 178.549,1373.120 185.340,1370.494 194.373 C 1369.149 199.000,1368.973 207.286,1369.217 254.619 C 1369.495 308.588,1369.536 309.567,1371.649 313.513 C 1376.580 322.718,1384.385 327.356,1395.000 327.386 C 1405.412 327.417,1414.246 321.451,1418.523 311.500 C 1418.996 310.400,1419.634 301.657,1419.941 292.071 L 1420.500 274.642 1426.966 283.071 C 1430.522 287.707,1438.317 297.927,1444.287 305.783 C 1450.258 313.639,1456.809 321.169,1458.847 322.517 C 1460.884 323.865,1465.639 325.730,1469.413 326.662 C 1475.171 328.083,1477.173 328.167,1481.861 327.184 C 1494.660 324.499,1502.299 315.845,1503.495 302.675 C 1503.853 298.729,1504.001 273.000,1503.823 245.500 L 1503.500 195.500 1500.849 190.500 C 1495.944 181.248,1488.413 176.706,1477.978 176.706 C 1467.313 176.706,1459.119 181.200,1454.653 189.500 C 1452.733 193.067,1452.446 195.528,1452.000 212.219 L 1451.500 230.938 1434.500 207.870 C 1423.517 192.967,1416.084 183.826,1413.500 182.045 C 1406.845 177.460,1398.239 175.649,1389.753 177.050 M1652.147 177.046 C 1640.113 179.492,1631.971 189.311,1632.022 201.315 C 1632.054 208.809,1634.320 212.928,1649.398 232.902 L 1662.868 250.743 1648.435 270.622 C 1632.510 292.555,1630.291 297.207,1631.512 306.087 C 1632.433 312.784,1637.267 319.663,1643.847 323.640 C 1650.152 327.450,1656.268 328.501,1663.454 327.010 C 1672.613 325.108,1676.244 321.680,1689.756 302.177 L 1694.830 294.855 1698.723 300.177 C 1700.865 303.105,1704.756 308.521,1707.369 312.212 C 1715.442 323.614,1721.105 327.094,1732.000 327.348 C 1740.766 327.553,1746.636 325.166,1752.324 319.085 C 1758.567 312.410,1760.434 304.702,1757.962 295.803 C 1757.397 293.769,1751.199 284.094,1744.188 274.303 C 1737.177 264.511,1730.470 255.120,1729.283 253.433 L 1727.125 250.367 1737.637 235.933 C 1743.419 227.995,1749.766 218.894,1751.742 215.710 L 1755.334 209.920 1757.917 214.672 C 1762.503 223.111,1770.207 226.928,1782.750 226.976 L 1789.000 227.000 1789.000 266.634 C 1789.000 294.361,1789.357 307.460,1790.189 310.236 C 1791.883 315.890,1799.043 323.466,1804.778 325.673 C 1811.667 328.323,1820.262 327.963,1826.500 324.763 C 1832.578 321.645,1835.241 318.901,1837.916 313.000 C 1839.861 308.710,1839.957 306.603,1839.978 267.886 L 1840.000 227.273 1849.255 226.788 C 1859.116 226.273,1863.297 224.815,1868.342 220.136 C 1880.304 209.040,1877.247 187.532,1862.595 179.691 C 1858.596 177.552,1857.518 177.493,1816.760 177.209 C 1788.766 177.013,1773.681 177.278,1770.953 178.013 C 1765.864 179.383,1759.613 184.939,1757.324 190.127 L 1755.578 194.084 1753.335 189.669 C 1748.940 181.023,1741.417 176.799,1730.266 176.719 C 1724.175 176.675,1722.137 177.127,1717.365 179.583 C 1712.412 182.132,1710.656 183.951,1703.446 194.000 C 1698.908 200.325,1694.813 205.300,1694.347 205.056 C 1693.881 204.812,1690.696 200.693,1687.269 195.902 C 1679.544 185.104,1675.657 181.168,1670.511 178.937 C 1665.375 176.709,1657.695 175.919,1652.147 177.046 M1531.222 178.447 C 1525.045 180.409,1520.362 184.382,1517.235 190.312 L 1514.500 195.500 1514.217 249.880 C 1513.890 312.647,1513.810 311.905,1521.810 319.905 C 1529.405 327.501,1532.426 328.000,1570.766 328.000 C 1590.221 328.000,1604.911 327.569,1607.994 326.908 C 1625.494 323.155,1632.467 300.709,1620.197 287.624 C 1614.573 281.626,1611.721 281.046,1587.750 281.022 L 1566.000 281.000 1566.000 278.000 L 1566.000 275.000 1583.250 274.990 C 1599.278 274.981,1600.860 274.813,1605.579 272.616 C 1614.460 268.480,1618.495 260.769,1617.841 249.183 C 1617.320 239.970,1613.616 233.709,1606.524 230.055 C 1601.892 227.668,1600.384 227.467,1583.533 226.990 L 1565.500 226.480 1587.500 225.981 C 1607.699 225.523,1609.838 225.302,1613.624 223.285 C 1622.290 218.668,1626.325 211.094,1625.815 200.403 C 1625.384 191.369,1621.770 184.989,1614.554 180.526 L 1609.661 177.500 1572.581 177.294 C 1543.633 177.133,1534.562 177.385,1531.222 178.447 M1405.978 190.646 C 1407.777 191.709,1419.950 207.013,1435.760 228.090 L 1462.500 263.737 1463.000 230.572 C 1463.449 200.806,1463.685 197.125,1465.304 194.656 C 1469.540 188.197,1478.045 186.211,1484.920 190.075 C 1491.822 193.954,1491.472 190.868,1491.766 250.500 C 1492.013 300.454,1491.900 304.761,1490.266 307.980 C 1486.269 315.856,1476.100 318.377,1466.998 313.750 C 1463.194 311.816,1458.779 306.465,1435.536 275.623 L 1408.500 239.746 1408.000 274.123 C 1407.452 311.776,1407.482 311.594,1401.358 314.500 C 1394.496 317.757,1385.390 315.117,1382.279 308.970 C 1381.326 307.085,1381.026 293.618,1381.015 252.154 C 1380.998 191.013,1380.695 193.538,1388.500 189.824 C 1393.320 187.530,1401.342 187.907,1405.978 190.646 M1608.683 190.336 C 1614.747 193.472,1616.688 203.249,1612.512 209.622 C 1609.328 214.481,1606.146 215.000,1579.532 215.000 L 1555.000 215.000 1555.000 226.500 C 1555.000 237.705,1555.058 238.005,1557.250 238.182 C 1558.488 238.283,1568.601 238.395,1579.723 238.432 L 1599.947 238.500 1603.111 241.657 C 1609.190 247.722,1607.722 259.528,1600.478 262.828 C 1598.767 263.608,1590.721 264.000,1576.453 264.000 L 1555.000 264.000 1555.000 277.500 L 1555.000 291.000 1578.250 291.024 C 1603.614 291.050,1608.075 291.621,1611.767 295.313 C 1614.984 298.529,1615.855 305.446,1613.594 309.817 C 1610.450 315.899,1609.747 316.000,1570.800 315.996 C 1537.158 315.993,1535.345 315.898,1532.190 313.974 C 1525.961 310.177,1526.000 310.567,1526.000 251.982 C 1526.000 195.553,1525.960 196.062,1530.790 191.690 C 1531.887 190.697,1533.949 189.573,1535.372 189.192 C 1536.795 188.812,1553.186 188.559,1571.797 188.630 C 1600.466 188.740,1606.101 189.001,1608.683 190.336 M1666.500 189.869 C 1669.793 191.371,1672.601 194.636,1682.389 208.347 C 1688.927 217.506,1694.552 224.994,1694.889 224.987 C 1695.225 224.979,1700.654 217.491,1706.954 208.346 C 1716.615 194.322,1719.041 191.432,1722.454 189.882 C 1732.111 185.495,1742.654 189.287,1744.997 197.990 C 1746.501 203.574,1744.992 206.886,1734.384 221.286 C 1729.029 228.554,1722.036 238.043,1718.844 242.374 C 1715.416 247.025,1713.339 250.739,1713.770 251.445 C 1714.504 252.648,1738.455 285.918,1744.136 293.625 C 1751.438 303.532,1745.360 315.986,1733.218 315.996 C 1728.050 316.001,1723.256 314.094,1720.350 310.879 C 1719.168 309.570,1713.179 301.300,1707.040 292.500 C 1700.902 283.700,1695.538 276.377,1695.119 276.226 C 1694.700 276.076,1690.151 281.926,1685.011 289.226 C 1670.056 310.465,1668.133 312.880,1664.815 314.596 C 1660.668 316.740,1651.919 316.070,1648.209 313.324 C 1644.744 310.759,1642.485 304.507,1643.379 299.953 C 1643.802 297.795,1650.044 288.109,1660.028 274.119 C 1668.813 261.809,1675.988 251.234,1675.974 250.619 C 1675.959 250.004,1670.063 241.625,1662.870 232.000 C 1644.723 207.716,1644.000 206.525,1644.000 200.939 C 1644.000 190.457,1655.445 184.826,1666.500 189.869 M1858.481 190.580 C 1866.086 195.562,1865.814 209.459,1858.033 213.483 C 1855.850 214.612,1851.758 215.000,1842.050 215.000 L 1829.000 215.000 1829.000 259.532 C 1829.000 307.588,1828.958 308.010,1823.637 312.917 C 1819.964 316.304,1811.756 316.900,1807.304 314.103 C 1800.941 310.105,1801.168 311.901,1800.651 261.500 C 1800.391 236.200,1800.139 215.388,1800.089 215.250 C 1800.040 215.113,1794.134 215.000,1786.965 215.000 C 1772.325 215.000,1769.791 214.137,1767.364 208.328 C 1764.262 200.904,1766.687 192.938,1772.896 190.158 C 1776.517 188.537,1780.350 188.401,1816.364 188.621 C 1851.754 188.837,1856.133 189.041,1858.481 190.580 M626.357 205.025 C 617.373 208.580,606.711 220.200,608.399 224.597 C 609.216 226.727,668.802 226.679,669.620 224.548 C 670.428 222.443,665.199 213.388,661.589 210.640 C 654.494 205.239,649.907 203.644,640.500 203.309 C 633.265 203.052,630.491 203.388,626.357 205.025 M435.268 223.894 C 428.777 226.306,425.079 228.897,421.582 233.481 C 417.019 239.464,414.849 245.566,414.703 252.828 C 414.503 262.773,417.080 269.257,423.910 275.995 C 430.637 282.631,436.556 285.012,446.312 285.005 C 472.765 284.986,486.125 252.297,468.080 231.744 C 460.756 223.402,446.055 219.885,435.268 223.894 M825.882 223.319 C 812.053 228.495,805.000 238.858,805.000 254.000 C 805.000 272.409,815.556 283.970,833.149 284.829 C 839.813 285.154,841.586 284.849,846.911 282.459 C 853.496 279.504,858.533 274.675,862.207 267.795 C 864.159 264.139,864.500 262.011,864.500 253.500 C 864.500 245.141,864.144 242.844,862.333 239.500 C 859.188 233.694,852.969 227.678,847.375 225.031 C 841.396 222.201,831.068 221.378,825.882 223.319 M1026.500 223.338 C 1017.442 226.340,1011.449 231.471,1006.800 240.205 C 1003.485 246.434,1003.491 260.451,1006.812 267.193 C 1009.957 273.580,1016.109 279.677,1022.329 282.573 C 1030.268 286.269,1040.649 286.015,1048.835 281.924 C 1055.044 278.822,1059.940 273.882,1063.625 267.000 C 1065.081 264.282,1065.500 261.377,1065.500 254.000 C 1065.500 243.043,1063.757 238.514,1056.765 231.308 C 1049.463 223.783,1035.921 220.217,1026.500 223.338 M454.500 238.271 C 466.328 244.887,465.394 263.892,452.929 270.248 C 438.299 277.709,422.577 260.834,429.956 245.591 C 434.292 236.635,445.565 233.272,454.500 238.271 M842.996 238.118 C 850.642 242.415,853.699 253.694,849.552 262.306 C 844.118 273.590,828.905 275.298,821.407 265.466 C 819.052 262.380,818.494 260.558,818.235 255.110 C 817.867 247.357,820.274 242.080,825.913 238.280 C 830.390 235.263,837.792 235.193,842.996 238.118 M1044.010 238.250 C 1050.880 242.925,1053.691 249.956,1051.894 257.972 C 1049.972 266.548,1043.430 272.000,1035.059 272.000 C 1023.252 272.000,1015.310 260.952,1018.440 248.884 C 1020.657 240.337,1026.255 236.010,1035.102 236.004 C 1039.270 236.001,1041.551 236.576,1044.010 238.250 M723.000 275.500 C 723.000 278.413,722.452 278.595,720.266 276.409 C 718.915 275.058,718.888 274.684,720.088 273.925 C 722.355 272.489,723.000 272.838,723.000 275.500 M652.500 282.000 C 652.160 282.550,648.785 283.000,645.000 283.000 C 641.215 283.000,637.840 282.550,637.500 282.000 C 637.107 281.365,639.843 281.000,645.000 281.000 C 650.157 281.000,652.893 281.365,652.500 282.000 M1282.455 392.455 C 1279.617 395.292,1279.363 397.645,1281.557 400.777 C 1284.720 405.293,1294.000 402.442,1294.000 396.955 C 1294.000 394.294,1289.678 390.000,1287.000 390.000 C 1285.850 390.000,1283.805 391.105,1282.455 392.455 M1192.655 392.829 C 1191.214 394.421,1191.000 397.695,1191.000 418.174 C 1191.000 439.686,1191.156 441.831,1192.829 443.345 C 1194.960 445.274,1200.067 445.533,1201.800 443.800 C 1202.460 443.140,1203.000 440.735,1203.000 438.455 C 1203.000 435.560,1203.612 433.756,1205.029 432.474 C 1207.001 430.689,1207.097 430.694,1208.475 432.660 C 1213.217 439.431,1218.282 445.016,1219.773 445.118 C 1223.148 445.350,1224.522 444.861,1226.273 442.804 C 1228.762 439.881,1227.745 437.481,1221.145 430.699 L 1215.500 424.899 1220.750 420.359 C 1226.048 415.778,1226.928 413.602,1224.965 409.934 C 1222.710 405.720,1214.059 409.451,1206.595 417.855 C 1205.547 419.035,1204.310 420.000,1203.845 420.000 C 1203.380 420.000,1203.000 414.345,1203.000 407.434 C 1203.000 400.523,1202.534 393.998,1201.965 392.934 C 1200.603 390.389,1194.921 390.324,1192.655 392.829 M753.359 393.923 C 749.266 396.419,748.638 397.531,748.018 403.393 C 747.540 407.909,747.278 408.309,744.610 408.589 C 739.757 409.100,739.000 409.755,739.000 413.450 C 739.000 417.064,739.310 417.292,745.500 418.223 C 747.353 418.502,747.521 419.403,747.783 430.450 C 747.942 437.144,748.545 442.951,749.156 443.688 C 750.744 445.602,756.413 445.306,758.310 443.210 C 759.564 441.824,759.995 438.828,760.215 429.960 L 760.500 418.500 764.487 418.176 C 768.931 417.814,769.962 416.791,769.985 412.725 C 770.002 409.538,766.229 407.475,762.223 408.480 C 760.067 409.021,759.895 408.793,760.184 405.786 C 760.477 402.738,760.789 402.476,764.487 402.175 C 766.680 401.997,769.043 401.379,769.737 400.803 C 771.576 399.277,771.282 395.565,769.171 393.655 C 766.555 391.287,757.428 391.442,753.359 393.923 M947.321 393.189 C 944.012 394.788,943.322 397.756,940.975 420.469 L 938.808 441.438 941.502 443.755 C 943.362 445.355,944.862 445.870,946.348 445.418 C 951.049 443.988,951.656 442.479,952.859 429.229 C 953.494 422.228,954.011 415.848,954.007 415.050 C 953.992 412.075,955.815 415.696,958.512 424.000 C 961.556 433.370,963.698 438.115,965.390 439.235 C 967.572 440.679,972.914 440.009,974.711 438.065 C 975.695 437.001,978.291 431.038,980.479 424.815 L 984.459 413.500 985.143 420.000 C 985.519 423.575,986.130 429.994,986.500 434.265 C 986.912 439.010,987.751 442.608,988.658 443.515 C 990.784 445.641,996.338 445.389,998.436 443.071 C 1000.098 441.234,1000.077 440.146,998.001 420.321 C 996.802 408.869,995.381 398.321,994.843 396.880 C 993.285 392.706,987.214 390.745,982.938 393.033 C 980.453 394.363,978.213 398.938,973.514 412.275 C 971.426 418.202,969.585 422.919,969.424 422.757 C 969.262 422.595,967.080 416.621,964.575 409.481 C 959.701 395.588,957.110 391.944,952.194 392.068 C 950.712 392.105,948.520 392.609,947.321 393.189 M1109.970 394.250 C 1101.714 398.421,1098.586 407.366,1102.931 414.382 C 1105.280 418.176,1108.425 420.057,1117.265 422.955 C 1126.897 426.113,1129.087 428.802,1125.022 432.480 C 1122.378 434.873,1116.164 434.036,1110.950 430.586 C 1108.801 429.164,1106.203 428.000,1105.176 428.000 C 1100.588 428.000,1098.193 436.050,1101.729 439.586 C 1107.508 445.365,1122.713 447.228,1130.729 443.138 C 1138.145 439.355,1141.594 431.360,1139.087 423.764 C 1137.385 418.608,1134.117 416.141,1124.337 412.632 C 1115.310 409.392,1113.456 407.565,1116.040 404.452 C 1117.705 402.445,1122.681 402.672,1127.780 404.987 C 1132.762 407.248,1136.653 406.232,1137.609 402.422 C 1139.737 393.945,1121.340 388.506,1109.970 394.250 M779.547 409.596 C 778.193 410.949,777.993 413.640,778.226 427.333 L 778.500 443.475 781.231 444.783 C 783.378 445.811,784.447 445.835,786.231 444.896 C 789.699 443.069,789.968 442.179,789.985 432.473 C 790.004 421.112,791.180 419.000,797.485 419.000 C 802.382 419.000,805.000 417.113,805.000 413.584 C 805.000 408.322,796.730 406.065,791.764 409.971 C 789.270 411.933,789.249 411.933,787.474 409.971 C 785.319 407.590,781.723 407.420,779.547 409.596 M818.500 409.665 C 813.867 412.113,811.877 414.153,809.881 418.500 C 805.477 428.090,808.866 438.497,817.937 443.236 C 823.653 446.222,827.761 446.658,833.101 444.847 C 840.359 442.385,844.717 437.316,846.439 429.334 C 847.951 422.324,842.364 412.304,835.298 409.351 C 830.969 407.543,822.207 407.706,818.500 409.665 M855.557 410.223 C 854.320 411.987,854.000 415.448,854.000 427.031 C 854.000 443.358,854.627 445.333,859.805 445.333 C 865.318 445.333,866.000 443.907,866.000 432.378 C 866.000 423.333,866.257 421.743,868.000 420.000 C 870.483 417.517,872.211 417.470,874.345 419.829 C 875.646 421.267,876.000 423.737,876.000 431.394 C 876.000 442.897,876.820 445.006,881.285 444.985 C 887.041 444.957,887.452 444.150,888.000 431.824 C 888.493 420.730,888.540 420.546,891.311 419.034 C 893.971 417.582,894.225 417.626,896.061 419.861 C 897.701 421.857,898.000 423.807,898.000 432.488 C 898.000 444.001,898.674 445.349,904.162 444.818 C 908.671 444.382,909.967 441.374,909.985 431.299 C 910.016 414.195,906.580 408.000,897.063 408.000 C 893.691 408.000,891.257 408.693,888.816 410.350 L 885.353 412.700 882.621 410.350 C 879.003 407.238,872.373 407.132,868.567 410.126 L 865.865 412.252 864.376 410.126 C 862.355 407.242,857.608 407.294,855.557 410.223 M1017.481 409.394 C 1013.626 411.073,1008.198 417.231,1007.454 420.768 C 1007.138 422.271,1006.699 424.382,1006.478 425.460 C 1005.676 429.383,1008.272 436.272,1011.933 439.933 C 1017.627 445.627,1025.748 447.385,1032.782 444.447 C 1040.801 441.097,1045.000 434.929,1045.000 426.500 C 1045.000 423.420,1044.365 419.686,1043.589 418.200 C 1041.695 414.575,1037.134 410.367,1033.685 409.064 C 1029.849 407.614,1021.159 407.791,1017.481 409.394 M1062.481 409.394 C 1058.795 411.000,1053.257 417.129,1052.397 420.555 C 1051.069 425.844,1052.486 434.638,1055.250 438.262 C 1061.702 446.720,1077.628 448.463,1084.615 441.476 C 1087.496 438.595,1087.601 436.963,1085.102 433.877 C 1083.229 431.564,1083.154 431.556,1079.568 433.266 C 1077.568 434.220,1074.248 435.000,1072.189 435.000 C 1068.491 435.000,1064.000 432.775,1064.000 430.943 C 1064.000 430.413,1068.516 430.000,1074.309 430.000 C 1086.337 430.000,1088.200 429.162,1088.200 423.754 C 1088.200 418.776,1084.521 412.661,1079.996 410.118 C 1075.627 407.663,1067.249 407.316,1062.481 409.394 M1156.500 409.871 C 1149.675 414.110,1146.990 419.048,1147.016 427.315 C 1147.056 439.665,1157.207 447.546,1170.507 445.551 C 1175.836 444.752,1181.392 441.177,1181.811 438.277 C 1182.220 435.453,1178.422 431.600,1176.173 432.557 C 1168.279 435.918,1166.871 436.105,1163.198 434.282 C 1156.448 430.931,1157.866 430.000,1169.717 430.000 C 1176.848 430.000,1181.014 429.586,1181.800 428.800 C 1183.607 426.993,1183.242 420.395,1181.103 416.202 C 1178.421 410.944,1172.767 407.999,1165.364 408.004 C 1161.389 408.006,1158.534 408.608,1156.500 409.871 M1240.922 410.274 C 1228.895 418.379,1229.630 437.103,1242.231 443.619 C 1246.495 445.824,1253.681 445.612,1256.964 443.185 C 1259.590 441.243,1259.670 441.241,1260.831 443.101 C 1262.474 445.732,1268.550 445.709,1269.965 443.066 C 1270.546 441.979,1271.000 434.561,1271.000 426.137 C 1271.000 413.839,1270.717 410.860,1269.429 409.571 C 1267.401 407.544,1263.146 407.558,1260.890 409.600 C 1259.270 411.066,1258.932 411.066,1256.839 409.600 C 1253.338 407.147,1245.039 407.499,1240.922 410.274 M1282.655 409.829 C 1280.269 412.465,1280.181 442.076,1282.553 444.044 C 1284.871 445.968,1290.057 445.643,1291.642 443.476 C 1293.753 440.588,1293.571 411.714,1291.429 409.571 C 1289.307 407.450,1284.685 407.585,1282.655 409.829 M431.604 416.590 C 431.268 417.465,431.247 418.590,431.556 419.090 C 431.889 419.629,486.059 420.000,564.452 420.000 C 701.333 420.000,698.604 420.077,697.269 416.250 C 696.924 415.258,669.472 415.000,564.524 415.000 C 444.501 415.000,432.157 415.148,431.604 416.590 M1336.278 416.122 C 1335.661 416.739,1335.394 417.864,1335.685 418.622 C 1336.477 420.686,1577.523 420.686,1578.315 418.622 C 1578.606 417.864,1578.339 416.739,1577.722 416.122 C 1576.120 414.520,1337.880 414.520,1336.278 416.122 M1075.171 418.655 C 1078.618 421.774,1077.458 423.000,1071.059 423.000 C 1064.329 423.000,1063.019 421.981,1065.964 419.036 C 1068.426 416.574,1072.678 416.398,1075.171 418.655 M1170.835 419.324 C 1172.036 420.602,1172.714 421.952,1172.342 422.324 C 1171.260 423.407,1159.000 423.109,1159.000 422.000 C 1159.000 419.986,1163.077 417.000,1165.826 417.000 C 1167.490 417.000,1169.549 417.955,1170.835 419.324 M832.628 420.106 C 834.320 421.510,835.393 427.187,834.499 430.004 C 833.691 432.548,827.922 435.268,825.306 434.338 C 821.493 432.983,820.000 430.753,820.000 426.418 C 820.000 422.954,820.518 421.738,822.734 419.994 C 825.577 417.758,829.857 417.807,832.628 420.106 M1029.343 419.110 C 1033.334 420.929,1035.190 426.908,1033.021 430.961 C 1031.702 433.425,1026.516 435.147,1023.671 434.065 C 1017.921 431.879,1016.658 424.411,1021.356 420.370 C 1024.441 417.717,1025.810 417.501,1029.343 419.110 M1256.365 420.073 C 1258.477 421.734,1259.000 422.993,1259.000 426.418 C 1259.000 432.620,1254.734 435.849,1249.123 433.893 C 1243.327 431.873,1242.479 422.436,1247.832 419.529 C 1251.496 417.539,1253.290 417.653,1256.365 420.073 " stroke="none" fill="var(--theme-color, #33ccbb)" fill-rule="evenodd"/></svg>
