<?xml version="1.0" encoding="UTF-8"?>
<svg id="svg" version="1.1" width="1536" height="699" viewBox="0 0 1536 699" xmlns="http://www.w3.org/2000/svg" xmlns:xlink="http://www.w3.org/1999/xlink"><path d="M115.500 6.484 C 86.100 11.957,65.235 31.418,57.049 61.000 C 53.342 74.398,52.863 91.896,53.240 200.000 C 53.639 314.389,53.173 306.861,60.755 321.333 C 67.323 333.869,79.038 343.204,95.000 348.620 C 102.749 351.249,121.294 351.241,129.000 348.605 C 138.157 345.473,143.523 342.335,150.086 336.277 C 157.665 329.280,163.272 320.884,166.252 312.072 C 168.417 305.667,168.487 304.058,168.987 248.618 L 169.500 191.737 176.249 201.325 C 188.846 219.222,199.367 227.031,213.763 229.167 C 219.428 230.008,222.369 229.909,228.443 228.670 C 242.295 225.845,251.309 218.539,263.017 200.648 L 268.891 191.671 269.241 247.585 C 269.548 296.761,269.797 304.203,271.303 309.329 C 277.540 330.555,293.423 345.191,314.956 349.552 C 330.677 352.736,345.845 349.851,359.194 341.136 C 369.219 334.592,377.601 323.943,380.988 313.449 C 381.689 311.277,382.475 309.130,382.735 308.678 C 382.995 308.225,386.648 311.201,390.854 315.290 C 412.517 336.355,439.437 346.180,483.077 348.949 C 535.746 352.290,579.304 346.931,605.171 333.927 C 623.130 324.898,637.713 311.652,647.201 295.750 C 649.416 292.038,651.514 289.003,651.864 289.007 C 652.214 289.010,654.220 292.172,656.323 296.033 C 672.060 324.928,703.436 345.341,740.692 350.923 C 750.830 352.441,772.774 352.250,784.000 350.545 C 808.075 346.889,828.679 337.730,842.190 324.679 C 847.247 319.794,847.385 319.814,850.482 325.907 C 856.463 337.674,873.627 348.560,889.281 350.516 C 899.937 351.847,916.577 347.411,924.600 341.100 L 927.075 339.153 934.787 343.008 C 968.057 359.638,1012.146 354.101,1042.816 329.440 C 1053.952 320.486,1064.735 307.334,1070.934 295.144 L 1073.149 290.787 1076.990 297.359 C 1093.023 324.796,1119.389 343.028,1154.040 350.641 C 1160.713 352.107,1166.408 352.480,1181.000 352.407 C 1198.274 352.321,1200.262 352.113,1211.000 349.269 C 1247.500 339.602,1275.084 315.625,1288.470 281.930 C 1290.185 277.611,1291.906 273.760,1292.294 273.372 C 1292.683 272.984,1293.008 274.879,1293.017 277.583 C 1293.037 283.135,1294.995 293.089,1297.511 300.430 C 1300.941 310.435,1307.276 320.276,1315.715 328.711 C 1322.465 335.457,1325.587 337.723,1333.215 341.412 C 1348.500 348.804,1356.487 350.463,1376.500 350.401 C 1390.657 350.357,1394.797 349.991,1401.257 348.213 C 1423.174 342.181,1436.567 329.634,1441.470 310.540 C 1445.423 295.145,1441.309 277.625,1431.198 266.791 C 1422.418 257.383,1412.286 253.000,1399.318 253.000 L 1392.000 253.000 1392.000 233.638 L 1392.000 214.276 1398.750 213.589 C 1417.357 211.694,1430.852 202.746,1438.104 187.496 C 1446.933 168.927,1443.382 146.425,1429.419 132.463 C 1421.062 124.105,1412.249 120.181,1399.516 119.148 L 1391.531 118.500 1391.251 110.000 C 1391.097 105.325,1390.293 98.837,1389.464 95.583 C 1384.269 75.199,1364.168 59.962,1342.540 60.015 C 1314.118 60.084,1293.000 81.652,1293.000 110.610 L 1293.000 118.763 1288.250 119.957 C 1277.145 122.751,1265.544 131.572,1260.286 141.221 C 1258.766 144.012,1257.262 145.668,1256.607 145.273 C 1255.998 144.905,1252.779 142.474,1249.453 139.870 C 1239.377 131.982,1222.476 124.264,1207.000 120.483 C 1198.002 118.285,1172.469 117.409,1162.003 118.939 C 1144.155 121.549,1125.097 128.974,1110.698 138.928 C 1098.418 147.417,1084.312 162.770,1076.865 175.750 C 1075.209 178.638,1073.702 181.000,1073.517 181.000 C 1073.332 181.000,1071.388 177.733,1069.196 173.740 C 1057.016 151.548,1038.766 135.030,1017.002 126.501 C 1003.177 121.083,994.606 119.575,977.500 119.550 C 962.221 119.528,958.305 120.040,946.875 123.556 C 945.415 124.005,945.202 121.637,944.785 100.278 C 944.345 77.794,944.175 76.077,941.661 68.731 C 938.415 59.249,935.632 54.718,929.117 48.304 C 919.889 39.221,908.907 35.000,894.500 35.000 C 871.143 35.000,851.880 48.558,844.774 70.000 C 842.749 76.109,842.596 78.838,842.228 115.347 L 841.836 154.195 833.668 146.239 C 823.688 136.519,813.685 129.993,800.906 124.866 C 757.860 107.596,708.207 117.046,675.718 148.692 C 670.570 153.707,660.789 165.902,657.349 171.595 C 656.225 173.455,656.181 173.453,655.453 171.500 C 646.327 146.992,628.345 125.651,605.500 112.215 C 590.011 103.106,570.106 96.940,549.720 94.936 C 543.549 94.329,537.011 93.620,535.191 93.360 L 531.882 92.887 532.068 83.694 L 532.254 74.500 536.697 69.718 C 539.141 67.088,542.341 62.363,543.810 59.218 C 546.112 54.288,546.481 52.189,546.490 43.979 C 546.499 35.237,546.233 33.915,543.232 27.820 C 539.029 19.282,530.342 11.042,522.285 7.950 C 506.429 1.864,487.443 7.944,477.655 22.241 C 472.504 29.765,470.773 35.263,470.803 44.000 C 470.838 54.110,473.774 61.824,480.156 68.571 L 485.000 73.693 485.000 83.328 C 485.000 94.276,485.880 93.338,474.500 94.515 C 442.533 97.822,413.572 110.450,392.747 130.161 L 384.993 137.500 384.961 112.000 C 384.925 83.566,384.063 70.841,381.476 60.540 C 376.059 38.971,362.501 21.813,343.604 12.610 C 331.509 6.720,325.902 5.489,311.500 5.565 C 282.629 5.717,261.503 17.712,235.221 48.873 C 229.324 55.864,223.310 63.140,221.855 65.042 C 220.400 66.944,219.013 68.275,218.773 68.000 C 218.533 67.725,215.474 63.675,211.977 59.000 C 191.241 31.287,177.288 18.611,159.564 11.385 C 145.306 5.572,129.712 3.838,115.500 6.484 M1400.000 8.752 C 1397.949 9.776,1395.803 11.949,1394.816 14.000 C 1393.144 17.475,1387.000 49.056,1387.000 54.175 C 1387.000 57.774,1391.244 62.599,1395.087 63.367 C 1399.129 64.176,1404.638 61.601,1406.477 58.045 C 1407.241 56.567,1408.832 51.566,1410.014 46.929 C 1411.195 42.293,1413.251 34.737,1414.581 30.138 C 1415.911 25.539,1417.000 20.454,1417.000 18.838 C 1417.000 14.373,1414.262 10.007,1410.466 8.421 C 1406.045 6.574,1404.245 6.631,1400.000 8.752 M144.500 24.585 C 164.544 29.424,180.639 44.201,208.444 83.291 C 213.839 90.876,218.759 96.917,219.377 96.716 C 220.535 96.338,224.935 90.736,238.128 72.845 C 257.472 46.612,272.667 33.017,290.032 26.408 C 296.977 23.765,298.521 23.563,312.075 23.533 L 326.651 23.500 335.263 27.767 C 349.755 34.948,358.458 45.420,364.129 62.500 C 366.418 69.393,366.458 70.267,366.778 119.846 L 367.103 170.193 364.132 178.846 C 358.953 193.933,357.719 204.864,358.276 230.731 C 358.790 254.608,359.630 260.053,365.124 275.120 C 366.925 280.058,367.156 282.497,366.793 292.677 C 366.432 302.772,365.986 305.341,363.739 310.253 C 358.048 322.694,346.127 331.310,332.219 333.035 C 311.466 335.609,293.342 323.840,288.105 304.390 C 287.377 301.686,286.816 274.071,286.441 222.407 C 286.129 179.558,285.692 143.938,285.468 143.250 C 285.245 142.563,284.167 142.000,283.073 142.000 C 280.996 142.000,278.300 145.857,255.458 181.500 C 242.440 201.813,235.739 209.109,227.987 211.411 C 220.845 213.532,217.185 213.415,210.316 210.845 C 206.462 209.403,203.100 207.170,200.154 204.095 C 197.732 201.568,187.369 186.921,177.125 171.547 C 166.881 156.173,157.750 143.149,156.834 142.605 C 155.669 141.914,154.691 142.012,153.584 142.930 C 152.164 144.109,152.000 152.180,152.000 220.912 C 152.000 304.414,152.048 303.629,146.287 314.214 C 138.829 327.918,122.302 335.572,105.652 333.033 C 91.470 330.871,81.409 323.652,75.272 311.236 L 71.500 303.603 71.500 188.052 L 71.500 72.500 73.842 65.000 C 79.123 48.087,88.125 36.296,100.764 29.738 C 115.495 22.094,128.054 20.615,144.500 24.585 M516.768 24.548 C 524.608 27.823,529.368 35.142,529.429 44.014 C 529.477 51.027,525.811 57.658,519.477 62.016 L 515.000 65.096 515.000 85.857 C 515.000 100.906,515.344 107.079,516.250 108.293 C 517.246 109.628,520.444 110.182,532.000 111.022 C 539.975 111.602,550.555 112.718,555.512 113.502 C 597.406 120.127,627.378 143.626,639.691 179.500 C 645.571 196.634,647.915 218.340,646.110 238.942 C 643.953 263.564,637.150 282.370,625.295 296.486 C 603.646 322.262,572.415 332.023,511.696 331.990 C 458.163 331.961,432.552 326.138,409.532 308.760 C 395.500 298.167,383.667 279.788,379.107 261.500 C 372.911 236.651,374.102 202.558,381.974 179.412 C 393.906 144.332,424.035 120.454,465.000 113.613 C 470.225 112.740,480.125 111.525,487.000 110.912 C 493.875 110.299,500.063 109.338,500.750 108.776 C 501.681 108.016,502.000 102.173,502.000 85.903 L 502.000 64.051 499.250 62.615 C 489.577 57.563,485.126 44.497,489.912 35.210 C 492.171 30.828,497.484 25.513,501.000 24.118 C 504.811 22.607,512.632 22.820,516.768 24.548 M1451.402 34.104 C 1449.378 34.675,1444.175 39.231,1436.400 47.239 C 1418.397 65.782,1416.500 68.346,1416.500 74.135 C 1416.500 80.724,1420.091 84.500,1426.356 84.500 C 1430.383 84.500,1431.321 83.907,1440.584 75.504 C 1465.830 52.600,1467.593 50.458,1466.695 43.760 C 1465.699 36.339,1458.837 32.006,1451.402 34.104 M907.500 54.528 C 917.519 58.737,924.966 68.893,926.936 81.034 C 927.513 84.590,927.988 101.311,927.992 118.191 C 927.997 135.071,928.346 149.096,928.769 149.357 C 929.192 149.619,933.580 147.840,938.519 145.405 C 970.065 129.853,1006.668 134.333,1034.017 157.094 C 1042.652 164.280,1049.189 172.930,1055.483 185.500 C 1070.783 216.051,1070.781 254.428,1055.478 285.576 C 1046.174 304.514,1033.105 317.566,1014.500 326.500 C 1000.840 333.060,994.143 334.467,976.500 334.485 C 963.563 334.498,960.469 334.179,954.000 332.165 C 944.665 329.258,935.773 324.838,930.332 320.400 C 928.039 318.530,925.564 317.001,924.832 317.003 C 924.099 317.004,922.600 318.383,921.500 320.065 C 918.901 324.041,911.340 329.616,905.981 331.507 C 903.613 332.342,898.310 333.000,893.944 333.000 C 886.886 333.000,885.442 332.641,878.858 329.250 C 870.020 324.698,864.894 318.555,861.958 309.000 C 860.006 302.644,859.968 299.999,860.231 189.500 L 860.500 76.500 863.101 71.000 C 869.111 58.295,881.312 51.509,896.500 52.425 C 900.350 52.657,905.300 53.603,907.500 54.528 M1355.184 79.757 C 1364.397 83.833,1372.105 93.447,1373.551 102.667 C 1373.881 104.775,1374.455 113.025,1374.826 121.000 L 1375.500 135.500 1390.000 136.006 C 1406.970 136.598,1410.893 137.971,1418.327 145.919 C 1427.875 156.126,1428.593 172.011,1420.066 184.404 C 1413.609 193.789,1405.189 196.970,1386.750 196.988 L 1375.000 197.000 1375.000 228.599 C 1375.000 255.378,1375.242 260.708,1376.586 263.540 C 1379.362 269.390,1382.040 270.395,1395.000 270.451 C 1405.056 270.494,1407.065 270.794,1411.000 272.843 C 1417.121 276.029,1419.736 278.612,1422.801 284.500 C 1424.991 288.707,1425.412 290.848,1425.452 298.000 C 1425.493 305.259,1425.107 307.303,1422.807 312.000 C 1419.204 319.361,1416.602 322.204,1409.657 326.374 C 1401.265 331.412,1392.223 333.253,1376.000 333.227 C 1365.653 333.210,1360.717 332.731,1354.864 331.173 C 1332.607 325.248,1318.627 311.854,1312.414 290.500 C 1310.924 285.380,1310.573 278.123,1310.024 241.000 C 1309.670 217.075,1309.294 197.388,1309.190 197.250 C 1309.085 197.113,1305.932 197.000,1302.182 197.000 C 1292.871 197.000,1286.223 194.828,1280.730 189.993 C 1263.964 175.236,1269.269 144.548,1289.795 137.554 C 1292.304 136.699,1297.603 136.000,1301.571 136.000 C 1307.228 136.000,1308.917 135.658,1309.393 134.418 C 1309.727 133.548,1310.000 126.430,1310.000 118.600 C 1310.000 102.262,1311.282 96.415,1316.317 89.794 C 1320.023 84.919,1328.351 79.526,1334.410 78.075 C 1340.341 76.656,1349.927 77.432,1355.184 79.757 M1478.500 86.508 C 1477.950 86.701,1469.449 88.753,1459.608 91.070 C 1439.226 95.868,1436.277 97.500,1435.343 104.500 C 1434.921 107.666,1435.281 109.098,1437.073 111.371 C 1441.489 116.974,1443.521 117.170,1463.528 113.931 C 1473.412 112.331,1482.966 110.347,1484.757 109.523 C 1488.653 107.732,1491.993 102.644,1491.993 98.500 C 1491.993 91.783,1483.922 84.610,1478.500 86.508 M775.989 135.557 C 818.075 143.541,846.414 176.324,846.392 217.000 C 846.382 234.466,841.887 243.468,830.334 249.157 L 823.547 252.500 774.523 252.773 C 747.561 252.924,724.954 253.241,724.286 253.478 C 720.276 254.903,731.527 268.928,740.159 273.263 C 756.672 281.558,774.000 280.690,797.000 270.414 C 814.463 262.612,827.978 265.707,836.479 279.456 C 839.154 283.783,839.497 285.212,839.477 291.922 C 839.459 297.708,838.948 300.455,837.314 303.540 C 826.561 323.838,786.270 337.830,749.334 334.091 C 722.611 331.386,703.249 322.970,687.010 307.000 C 673.940 294.147,667.016 282.052,661.819 263.000 C 659.737 255.369,659.504 252.404,659.540 234.000 C 659.578 214.697,659.735 212.999,662.234 204.929 C 672.526 171.686,691.521 151.124,722.821 139.343 C 736.617 134.150,759.851 132.496,775.989 135.557 M1201.552 137.366 C 1211.451 139.504,1217.281 141.562,1226.494 146.173 C 1251.559 158.714,1268.579 180.240,1276.738 209.717 C 1279.196 218.599,1279.440 221.019,1279.379 236.000 C 1279.321 250.415,1278.989 253.715,1276.747 262.119 C 1268.958 291.324,1250.027 314.430,1224.284 326.157 C 1184.173 344.430,1133.887 335.637,1104.893 305.281 C 1086.166 285.675,1077.029 258.478,1079.050 228.354 C 1082.169 181.857,1114.594 145.446,1160.500 136.891 C 1172.210 134.709,1190.212 134.917,1201.552 137.366 M463.000 158.004 C 445.939 159.255,435.556 163.628,424.327 174.294 C 411.550 186.431,406.035 200.966,406.035 222.500 C 406.035 243.338,410.424 255.389,422.473 267.635 C 427.854 273.104,431.517 275.814,437.078 278.441 C 452.203 285.585,451.303 285.500,512.000 285.500 C 566.343 285.500,566.522 285.493,574.000 283.159 C 591.430 277.719,602.753 268.505,609.833 254.000 C 619.256 234.696,619.286 208.357,609.907 189.346 C 600.924 171.137,584.490 160.296,562.337 157.965 C 552.331 156.913,477.492 156.942,463.000 158.004 M750.041 185.675 C 740.538 187.681,731.447 193.648,726.849 200.900 C 721.416 209.467,719.769 209.000,755.441 209.000 C 776.819 209.000,787.095 208.655,787.547 207.923 C 788.788 205.916,784.904 198.146,780.812 194.449 C 774.806 189.023,766.955 185.764,759.094 185.433 C 755.467 185.281,751.394 185.389,750.041 185.675 M465.830 193.879 C 471.137 197.658,472.000 201.095,472.000 218.451 C 472.000 235.393,471.384 237.980,466.419 241.885 C 460.773 246.326,452.767 245.495,447.415 239.914 L 444.500 236.874 444.190 219.175 C 443.889 202.070,443.957 201.362,446.190 198.089 C 450.985 191.061,459.353 189.267,465.830 193.879 M580.348 200.012 C 581.376 201.753,581.862 203.861,581.498 205.006 C 581.152 206.097,577.298 209.545,572.934 212.670 C 568.570 215.794,565.000 218.705,565.000 219.140 C 565.000 219.574,568.603 222.240,573.006 225.065 C 581.751 230.674,583.358 233.279,580.637 237.431 C 577.636 242.011,575.695 241.667,563.688 234.430 C 549.597 225.935,547.000 223.600,547.000 219.424 C 547.000 215.121,548.660 213.409,561.406 204.566 C 574.027 195.810,577.388 195.001,580.348 200.012 M951.822 200.324 C 938.605 205.898,930.279 216.500,927.968 230.697 C 926.088 242.245,931.665 257.284,940.500 264.494 C 947.923 270.552,952.647 272.331,962.500 272.780 C 974.899 273.344,981.203 270.973,989.588 262.588 C 997.968 254.207,1000.484 247.837,1000.493 234.977 C 1000.499 226.227,1000.233 224.911,997.219 218.792 C 993.494 211.227,986.100 203.872,979.000 200.666 C 975.943 199.286,971.774 198.521,966.000 198.282 C 958.777 197.982,956.647 198.289,951.822 200.324 M1168.005 199.611 C 1165.533 200.507,1161.648 202.522,1159.370 204.089 C 1143.272 215.165,1138.357 239.102,1148.595 256.572 C 1155.797 268.860,1172.568 276.185,1186.172 272.983 C 1205.591 268.411,1217.078 252.692,1215.779 232.465 C 1214.960 219.703,1207.225 207.717,1195.774 201.464 C 1191.265 199.002,1189.195 198.541,1181.500 198.283 C 1175.051 198.067,1171.226 198.443,1168.005 199.611 M970.101 216.172 C 975.505 218.036,978.827 221.011,981.507 226.389 C 988.374 240.170,979.593 256.000,965.082 256.000 C 958.473 256.000,954.260 254.199,950.289 249.676 C 940.719 238.777,945.116 221.285,958.637 216.465 C 963.459 214.746,965.792 214.686,970.101 216.172 M1189.527 218.017 C 1196.894 222.570,1200.351 232.840,1197.648 242.138 C 1195.087 250.948,1188.249 256.286,1179.525 256.286 C 1170.529 256.286,1164.026 251.216,1161.361 242.124 C 1158.232 231.452,1162.751 221.009,1172.500 216.380 C 1176.559 214.453,1185.087 215.272,1189.527 218.017 M498.358 248.458 C 500.636 250.909,503.767 253.384,505.315 253.958 C 512.110 256.474,520.638 253.786,525.314 247.655 C 528.496 243.483,531.192 243.008,533.443 246.223 C 540.520 256.326,522.186 270.549,506.362 267.230 C 493.264 264.483,483.799 252.201,490.000 246.000 C 492.823 243.177,493.688 243.431,498.358 248.458 M378.500 368.866 C 363.587 373.167,351.243 383.192,344.213 396.711 C 340.235 404.363,338.622 410.076,329.458 449.000 C 327.969 455.325,325.031 467.700,322.930 476.500 C 307.349 541.760,307.000 543.415,307.011 552.038 C 307.029 565.997,311.273 576.140,320.962 585.382 C 327.096 591.233,333.453 594.873,341.932 597.388 C 346.887 598.859,382.771 599.000,751.755 599.000 L 1156.147 599.000 1163.602 596.498 C 1167.702 595.121,1173.983 592.147,1177.559 589.889 L 1184.060 585.783 1188.808 590.224 C 1197.760 598.598,1197.033 598.500,1250.500 598.500 L 1297.500 598.500 1304.242 595.877 C 1315.874 591.352,1322.015 586.985,1335.008 574.000 C 1345.812 563.202,1386.569 519.572,1395.857 508.861 C 1407.196 495.785,1410.625 480.301,1405.232 466.537 C 1403.372 461.791,1399.616 456.005,1387.358 439.000 C 1382.402 432.125,1371.804 417.275,1363.807 406.000 C 1347.715 383.312,1341.054 376.259,1331.722 372.028 C 1321.011 367.171,1316.961 366.840,1272.500 367.183 L 1231.500 367.500 1225.954 370.101 C 1222.904 371.532,1218.771 374.140,1216.770 375.897 L 1213.132 379.091 1208.316 375.677 C 1205.667 373.799,1200.800 371.191,1197.500 369.881 L 1191.500 367.500 788.000 367.318 C 408.127 367.147,384.149 367.238,378.500 368.866 M1185.566 384.087 C 1192.564 385.368,1199.661 388.984,1203.768 393.360 C 1208.289 398.178,1251.607 468.077,1253.468 473.558 C 1255.521 479.604,1254.779 484.629,1251.083 489.713 C 1249.569 491.796,1231.433 511.500,1210.781 533.500 C 1183.651 562.401,1171.743 574.391,1167.866 576.713 C 1156.426 583.562,1192.668 583.039,748.952 582.756 L 347.500 582.500 341.238 579.608 C 330.936 574.850,324.456 565.818,323.299 554.603 C 322.868 550.430,323.800 545.079,327.860 528.429 C 330.667 516.918,334.800 499.400,337.045 489.500 C 339.289 479.600,342.647 465.425,344.506 458.000 C 346.364 450.575,349.518 437.075,351.513 428.000 C 355.811 408.446,358.153 402.833,365.058 395.532 C 370.779 389.483,376.703 386.165,385.000 384.362 C 392.543 382.724,1176.649 382.454,1185.566 384.087 M1312.800 383.972 C 1321.080 385.142,1328.965 388.904,1334.196 394.181 C 1336.563 396.569,1344.437 407.067,1351.693 417.511 C 1358.949 427.955,1368.482 441.450,1372.877 447.500 C 1391.487 473.120,1390.500 471.307,1390.500 479.876 C 1390.500 488.875,1389.095 492.248,1382.326 499.500 C 1379.759 502.250,1374.923 507.447,1371.580 511.050 C 1315.207 571.780,1313.992 572.991,1304.500 577.863 C 1295.211 582.631,1291.161 583.001,1248.540 582.978 C 1211.408 582.958,1208.197 582.819,1204.328 581.062 C 1202.033 580.020,1199.407 578.024,1198.491 576.627 C 1196.517 573.613,1196.811 573.058,1205.078 564.198 C 1208.002 561.064,1213.343 555.344,1216.947 551.487 C 1227.382 540.320,1244.920 521.390,1255.383 510.000 C 1265.992 498.453,1270.682 490.477,1271.645 482.352 C 1272.912 471.648,1272.037 469.864,1240.671 419.177 C 1232.052 405.250,1225.000 393.027,1225.000 392.016 C 1225.000 389.379,1230.426 385.185,1234.779 384.458 C 1236.826 384.116,1238.950 383.678,1239.500 383.485 C 1241.682 382.720,1307.011 383.153,1312.800 383.972 M1271.400 406.428 C 1265.927 408.810,1265.518 413.976,1270.211 421.412 C 1274.678 428.490,1283.024 441.459,1291.686 454.784 C 1305.182 475.545,1306.838 479.697,1303.849 485.283 C 1303.215 486.466,1290.390 501.257,1275.349 518.152 C 1260.307 535.047,1247.561 550.024,1247.025 551.435 C 1245.552 555.308,1247.350 558.829,1251.744 560.675 C 1256.848 562.819,1284.982 562.107,1289.532 559.718 C 1293.326 557.727,1297.243 553.565,1316.108 531.485 C 1355.299 485.616,1356.033 484.554,1353.937 476.762 C 1352.752 472.356,1317.609 414.632,1313.136 409.744 C 1311.749 408.228,1309.013 406.543,1307.057 405.999 C 1301.607 404.485,1275.131 404.804,1271.400 406.428 M407.383 408.402 C 402.130 410.848,398.003 415.232,396.004 420.489 C 393.498 427.082,367.000 542.187,367.000 546.482 C 367.000 552.265,369.002 556.220,373.261 558.853 C 377.657 561.569,396.485 562.177,402.073 559.782 C 407.177 557.594,412.383 552.712,414.317 548.299 C 415.695 545.155,421.323 522.543,431.627 478.750 C 432.501 475.038,433.455 472.000,433.747 472.000 C 434.504 472.000,434.714 472.297,457.706 505.793 C 493.500 557.938,492.193 556.176,496.969 558.702 C 500.852 560.755,502.686 561.000,514.189 561.000 C 528.457 561.000,531.378 560.241,537.374 554.977 C 543.468 549.626,540.957 558.441,566.566 452.500 C 570.289 437.100,573.346 422.361,573.360 419.746 C 573.389 414.146,571.043 410.359,565.929 407.752 C 561.544 405.516,542.696 405.265,537.645 407.375 C 532.981 409.324,526.941 414.898,525.339 418.731 C 524.118 421.652,515.232 459.101,509.852 484.000 C 508.723 489.225,507.457 494.120,507.039 494.877 C 506.278 496.255,502.449 490.910,465.574 437.000 C 457.485 425.175,450.074 414.393,449.105 413.039 C 448.135 411.685,445.394 409.548,443.014 408.289 C 439.137 406.239,437.320 406.001,425.593 406.010 C 413.910 406.018,411.949 406.276,407.383 408.402 M624.052 407.170 C 618.986 408.624,612.604 413.580,610.131 417.981 C 608.929 420.119,605.559 432.231,602.566 445.168 C 599.597 458.001,593.305 485.017,588.584 505.203 C 583.863 525.390,580.000 543.848,580.000 546.221 C 580.000 551.577,583.473 557.048,588.340 559.357 C 591.439 560.827,598.484 561.000,655.433 561.000 C 710.697 561.000,719.553 560.796,722.782 559.447 C 730.654 556.159,735.914 548.443,736.674 539.072 C 737.230 532.208,735.056 527.472,730.000 524.534 C 726.643 522.583,724.649 522.488,681.250 522.203 C 637.645 521.916,636.000 521.836,636.000 520.015 C 636.000 518.286,638.384 506.885,639.604 502.781 C 640.075 501.195,643.456 501.040,682.973 500.781 L 725.830 500.500 730.094 497.500 C 737.767 492.102,741.632 479.864,737.978 472.537 C 737.165 470.908,734.971 468.545,733.102 467.287 L 729.704 465.000 689.352 465.000 C 665.315 465.000,649.000 464.626,649.000 464.076 C 649.000 463.567,649.940 459.067,651.090 454.076 L 653.179 445.000 698.340 444.990 L 743.500 444.980 748.500 442.617 C 751.250 441.317,754.720 438.952,756.211 437.362 C 761.892 431.306,763.836 418.524,760.027 412.276 C 756.135 405.893,757.252 405.990,689.128 406.090 C 651.752 406.145,626.143 406.570,624.052 407.170 M802.914 406.956 C 796.384 408.934,793.000 413.166,793.000 419.351 C 793.000 422.664,794.136 424.260,829.404 470.471 C 838.110 481.879,838.265 482.178,836.404 483.959 C 835.357 484.961,829.277 489.993,822.893 495.140 C 788.456 522.911,762.267 545.119,761.203 547.453 C 759.253 551.733,759.770 554.924,762.923 558.077 C 765.112 560.266,766.807 561.010,769.673 561.038 C 798.248 561.320,801.918 561.130,806.445 559.127 C 808.951 558.019,815.790 553.149,821.643 548.306 C 847.873 526.603,863.421 514.002,863.939 514.028 C 864.248 514.044,868.100 518.835,872.500 524.675 C 892.870 551.712,896.961 556.610,901.199 559.033 C 905.368 561.416,906.018 561.482,922.389 561.199 C 940.582 560.885,943.047 560.298,946.933 555.357 C 949.699 551.841,950.535 548.254,949.331 545.074 C 948.794 543.658,938.601 529.590,926.678 513.810 C 914.755 498.031,905.005 484.531,905.012 483.810 C 905.018 483.090,908.036 480.025,911.718 477.000 C 945.409 449.318,974.573 424.612,977.217 421.513 C 979.774 418.515,979.480 412.810,976.609 409.712 C 973.404 406.254,969.916 405.755,951.854 406.168 C 939.732 406.446,935.763 406.889,933.000 408.273 C 929.810 409.872,905.816 429.312,888.500 444.328 C 884.650 447.667,880.759 451.011,879.853 451.761 C 878.382 452.978,876.435 450.775,861.672 431.198 C 841.605 404.588,843.819 405.963,821.230 406.086 C 812.578 406.133,804.336 406.525,802.914 406.956 M1013.239 407.335 C 1004.649 410.450,999.284 418.007,998.359 428.292 C 997.872 433.709,998.103 434.946,1000.170 438.000 C 1004.634 444.593,1006.565 444.997,1033.646 444.998 L 1057.792 445.000 1055.465 455.750 C 1054.186 461.663,1050.440 477.975,1047.143 492.000 C 1033.705 549.151,1033.625 549.711,1038.115 555.419 C 1041.964 560.312,1045.460 561.361,1057.608 561.269 C 1070.513 561.172,1074.528 559.706,1080.274 552.993 C 1084.501 548.055,1082.282 556.239,1101.959 473.000 C 1104.625 461.725,1107.215 450.925,1107.715 449.000 L 1108.624 445.500 1134.562 445.000 C 1159.462 444.520,1160.648 444.408,1164.208 442.195 C 1169.486 438.913,1172.719 434.686,1174.475 428.771 C 1177.580 418.318,1175.526 411.052,1168.576 407.895 C 1164.723 406.145,1160.448 406.047,1090.500 406.098 C 1036.170 406.138,1015.633 406.467,1013.239 407.335 M211.450 410.407 C 207.575 412.095,203.363 417.070,202.506 420.973 C 201.044 427.631,206.121 434.829,213.781 436.956 C 216.044 437.585,232.375 437.982,255.500 437.972 C 290.402 437.957,293.834 437.804,297.599 436.095 C 305.746 432.394,308.714 424.565,304.808 417.074 C 300.536 408.881,301.238 408.994,255.016 409.039 C 223.596 409.069,213.815 409.377,211.450 410.407 M132.020 465.752 C 121.567 471.003,121.419 485.500,131.766 490.644 C 135.300 492.400,139.363 492.500,207.500 492.500 C 278.330 492.500,279.557 492.467,282.997 490.446 C 293.125 484.496,293.517 471.944,283.759 465.995 C 280.586 464.060,278.581 464.007,208.000 464.005 C 140.968 464.003,135.238 464.135,132.020 465.752 M209.421 519.896 C 197.867 525.144,197.077 539.159,208.020 544.750 C 212.276 546.925,213.360 547.000,240.374 547.000 C 268.280 547.000,268.331 546.996,272.532 544.534 C 282.731 538.557,282.248 524.740,271.672 519.938 C 267.908 518.229,264.863 518.044,240.500 518.044 C 216.352 518.044,213.069 518.240,209.421 519.896 M438.021 630.636 C 430.807 636.706,425.198 653.763,426.265 666.385 C 427.517 681.192,438.513 697.472,444.939 694.032 C 448.314 692.227,448.241 689.871,444.646 684.566 C 437.834 674.513,437.500 673.435,437.500 661.500 C 437.500 651.304,437.711 650.098,440.392 645.000 C 441.982 641.975,444.345 638.108,445.642 636.406 C 448.417 632.764,448.541 631.684,446.429 629.571 C 444.162 627.305,441.593 627.630,438.021 630.636 M1088.571 629.571 C 1086.494 631.648,1086.555 632.025,1089.613 636.056 C 1091.051 637.950,1093.268 641.750,1094.541 644.500 C 1101.319 659.144,1099.565 672.037,1088.727 687.233 C 1086.746 690.011,1087.266 692.537,1090.137 694.073 C 1094.498 696.407,1101.987 688.958,1106.013 678.282 C 1111.776 663.000,1108.602 644.073,1098.249 631.978 C 1094.574 627.685,1091.278 626.865,1088.571 629.571 M476.949 632.524 C 472.577 634.409,470.063 638.467,469.743 644.154 C 469.549 647.607,469.098 648.535,467.500 648.776 C 462.396 649.546,461.090 650.142,460.511 651.965 C 459.442 655.335,461.660 658.000,465.535 658.000 L 469.000 658.000 469.000 671.309 C 469.000 686.302,469.699 688.333,474.858 688.333 C 476.586 688.333,478.338 687.998,478.750 687.587 C 479.163 687.177,479.725 680.464,480.000 672.671 L 480.500 658.500 484.487 658.175 C 489.222 657.790,491.000 656.535,491.000 653.578 C 491.000 650.396,489.100 649.000,484.769 649.000 C 480.377 649.000,479.123 647.221,480.847 643.436 C 481.741 641.473,482.699 641.000,485.779 641.000 C 487.880 641.000,490.140 640.460,490.800 639.800 C 492.202 638.398,492.346 635.095,491.091 633.113 C 489.798 631.071,481.155 630.711,476.949 632.524 M871.143 633.432 C 863.728 635.849,859.000 641.923,859.000 649.034 C 859.000 656.728,863.114 660.342,876.694 664.582 C 888.462 668.255,890.774 669.985,889.459 674.129 C 889.101 675.258,887.176 676.864,885.183 677.697 C 880.126 679.810,873.883 678.758,868.489 674.885 C 863.524 671.319,859.658 671.459,858.371 675.252 C 856.812 679.844,858.785 682.738,865.683 685.981 C 876.171 690.911,890.933 689.257,896.879 682.485 C 900.569 678.283,901.418 675.400,900.739 669.378 C 899.903 661.958,895.437 658.361,883.389 655.398 C 874.042 653.101,870.996 651.458,871.015 648.724 C 871.036 645.658,872.069 644.304,875.335 643.063 C 879.569 641.453,882.187 641.759,887.581 644.496 C 893.551 647.525,895.146 647.601,897.527 644.970 C 904.145 637.657,884.518 629.074,871.143 633.432 M964.200 633.200 C 962.752 634.648,962.498 684.659,963.927 686.917 C 965.242 688.994,971.014 688.702,972.642 686.476 C 973.389 685.454,974.000 682.277,974.000 679.416 C 974.000 672.335,975.848 671.795,980.988 677.372 C 983.175 679.744,985.932 682.915,987.114 684.417 C 990.173 688.307,993.676 689.442,996.635 687.504 C 997.936 686.651,999.000 685.080,999.000 684.011 C 999.000 682.943,995.848 678.498,991.997 674.134 L 984.993 666.199 991.144 660.254 C 996.435 655.140,997.204 653.948,996.645 651.721 C 995.860 648.593,992.897 647.457,989.788 649.093 C 988.529 649.754,984.463 652.976,980.750 656.251 L 974.000 662.206 974.000 649.325 C 974.000 639.286,973.657 635.955,972.443 634.223 C 970.728 631.774,966.189 631.211,964.200 633.200 M1059.974 634.049 C 1058.199 637.364,1059.191 641.264,1062.241 642.968 C 1065.430 644.750,1067.630 643.835,1069.941 639.766 C 1071.219 637.516,1071.188 636.937,1069.667 634.615 C 1067.452 631.235,1061.661 630.897,1059.974 634.049 M687.557 635.223 C 686.256 637.079,686.000 641.265,686.000 660.641 C 686.000 673.398,686.286 684.583,686.636 685.495 C 687.690 688.242,691.896 689.298,694.635 687.504 C 696.959 685.980,697.000 685.676,697.019 669.727 L 697.037 653.500 703.494 664.500 C 710.390 676.249,713.440 679.032,717.430 677.214 C 718.706 676.632,722.341 671.432,726.067 664.855 L 732.500 653.500 733.000 670.170 C 733.275 679.339,733.838 687.176,734.250 687.587 C 734.663 687.997,736.358 688.333,738.018 688.333 C 743.645 688.333,743.933 686.999,743.968 660.750 C 743.998 638.310,743.890 636.890,742.000 635.000 C 739.839 632.839,735.979 632.406,733.014 633.992 C 731.994 634.538,727.667 641.288,723.398 648.992 C 719.129 656.697,715.362 663.000,715.026 663.000 C 714.376 663.000,709.888 655.431,703.008 642.731 C 700.693 638.459,697.974 634.521,696.965 633.981 C 693.706 632.237,689.235 632.827,687.557 635.223 M504.655 649.829 C 503.251 651.380,503.002 654.222,503.015 668.579 C 503.024 677.885,503.381 686.051,503.809 686.725 C 504.579 687.938,506.925 688.465,510.183 688.158 C 512.524 687.938,513.240 684.983,513.499 674.472 C 513.622 669.475,514.249 664.404,514.891 663.204 C 516.427 660.334,521.073 658.000,525.250 658.000 C 529.114 658.000,531.000 656.509,531.000 653.455 C 531.000 648.425,523.644 646.325,517.904 649.716 C 516.307 650.659,515.000 651.784,515.000 652.216 C 515.000 652.647,514.550 653.000,514.000 653.000 C 513.450 653.000,513.000 652.341,513.000 651.535 C 513.000 649.973,510.054 648.000,507.721 648.000 C 506.945 648.000,505.565 648.823,504.655 649.829 M549.000 650.240 C 542.314 653.826,538.686 659.570,538.190 667.353 C 537.724 674.672,539.872 680.032,545.002 684.348 C 554.616 692.438,571.773 689.192,577.154 678.264 C 581.951 668.523,579.389 657.713,570.838 651.609 C 564.976 647.424,555.372 646.822,549.000 650.240 M592.571 649.571 C 591.264 650.879,591.003 654.024,591.015 668.321 C 591.024 677.770,591.434 686.138,591.927 686.917 C 592.421 687.696,594.253 688.333,596.000 688.333 C 597.747 688.333,599.579 687.696,600.073 686.917 C 600.566 686.138,600.976 681.180,600.985 675.899 C 601.006 662.502,602.958 657.967,608.684 658.015 C 613.008 658.052,613.479 659.371,614.000 672.913 C 614.275 680.057,614.950 686.324,615.500 686.839 C 617.821 689.012,620.901 689.099,622.949 687.051 C 624.765 685.235,625.000 683.757,625.000 674.135 C 625.000 664.657,625.265 662.933,627.073 660.635 C 629.457 657.604,633.950 657.093,636.429 659.571 C 637.688 660.831,638.000 663.604,638.000 673.548 C 638.000 685.489,638.089 686.012,640.365 687.504 C 643.493 689.553,647.700 688.042,648.575 684.555 C 648.923 683.172,649.048 676.498,648.853 669.725 C 648.462 656.085,647.531 653.514,641.696 649.956 C 637.292 647.271,631.451 647.480,626.146 650.513 L 621.792 653.002 618.819 650.501 C 615.124 647.392,608.909 647.148,604.341 649.933 C 601.223 651.835,601.161 651.835,599.436 649.930 C 597.321 647.592,594.688 647.454,592.571 649.571 M770.505 648.678 C 766.210 649.890,760.135 655.091,758.099 659.296 C 754.602 666.519,755.793 676.728,760.788 682.355 C 763.585 685.505,772.088 688.980,777.000 688.980 C 783.545 688.980,791.257 685.081,794.548 680.106 C 798.507 674.124,799.026 665.088,795.760 659.000 C 792.152 652.274,786.696 648.866,778.869 648.452 C 775.366 648.266,771.602 648.368,770.505 648.678 M819.020 650.250 C 812.456 653.603,808.765 658.794,808.213 665.444 C 807.964 668.449,808.061 672.513,808.429 674.475 C 809.281 679.014,814.327 684.789,819.491 687.135 C 829.250 691.568,845.634 687.048,844.797 680.153 C 844.297 676.029,841.877 675.376,836.179 677.827 C 833.402 679.022,830.042 680.000,828.713 680.000 C 825.686 680.000,819.624 676.002,819.184 673.715 C 818.886 672.170,820.078 672.000,831.236 672.000 C 846.505 672.000,847.495 671.504,846.793 664.201 C 845.559 651.353,831.089 644.084,819.020 650.250 M924.500 649.326 C 919.458 651.299,916.484 653.794,914.084 658.065 C 912.142 661.520,911.845 663.265,912.156 669.414 C 912.811 682.385,919.512 688.500,933.073 688.500 C 939.670 688.500,941.184 688.144,944.823 685.736 C 947.701 683.831,949.000 682.261,949.000 680.686 C 949.000 676.089,944.965 674.666,940.403 677.656 C 934.926 681.244,924.179 678.741,923.177 673.644 C 922.891 672.190,924.285 672.000,935.272 672.000 C 946.367 672.000,947.880 671.790,949.477 670.026 C 953.561 665.513,948.248 653.378,940.684 649.943 C 936.005 647.819,929.031 647.553,924.500 649.326 M1018.619 649.034 C 1011.780 651.082,1008.577 657.939,1013.426 660.148 C 1015.419 661.056,1016.469 660.873,1019.294 659.127 C 1023.962 656.243,1030.250 656.278,1032.976 659.205 C 1034.106 660.417,1034.906 661.782,1034.754 662.238 C 1034.602 662.694,1031.094 663.230,1026.959 663.428 C 1015.034 664.001,1009.481 667.259,1008.329 674.359 C 1007.571 679.032,1009.455 683.475,1013.382 686.276 C 1017.474 689.195,1028.094 689.410,1032.189 686.658 C 1034.808 684.897,1034.953 684.905,1037.744 686.969 C 1040.828 689.249,1043.435 688.924,1044.963 686.069 C 1045.464 685.134,1045.608 678.464,1045.285 671.204 C 1044.605 655.917,1043.433 653.007,1036.729 649.964 C 1032.252 647.931,1023.759 647.496,1018.619 649.034 M1061.000 650.000 C 1059.164 651.836,1059.000 653.333,1059.000 668.309 C 1059.000 687.824,1059.782 689.661,1067.250 687.688 L 1070.000 686.962 1070.000 669.052 C 1070.000 654.104,1069.740 650.883,1068.429 649.571 C 1066.288 647.431,1063.402 647.598,1061.000 650.000 M220.642 652.871 C 218.114 653.865,216.217 657.686,216.783 660.643 C 217.829 666.117,215.882 666.000,305.885 666.000 C 388.271 666.000,393.225 665.816,395.214 662.687 C 396.628 660.464,396.005 656.005,394.000 654.000 C 392.030 652.030,390.715 652.001,307.250 652.070 C 260.638 652.109,221.664 652.469,220.642 652.871 M1140.409 652.972 C 1139.259 653.437,1137.759 655.168,1137.075 656.818 C 1135.547 660.509,1136.904 663.633,1140.655 665.059 C 1144.332 666.457,1305.888 666.284,1309.922 664.877 C 1315.100 663.072,1315.434 654.876,1310.407 652.965 C 1307.239 651.760,1143.388 651.768,1140.409 652.972 M563.775 659.004 C 567.718 661.408,569.344 665.170,568.670 670.328 C 567.204 681.543,552.538 682.942,549.137 672.191 C 547.272 666.298,549.119 661.220,554.025 658.752 C 558.454 656.523,559.761 656.557,563.775 659.004 M783.287 659.760 C 786.504 662.671,788.229 666.968,787.576 670.446 C 786.899 674.058,782.709 678.436,779.092 679.312 C 775.968 680.069,770.701 677.839,768.631 674.883 C 765.003 669.704,767.623 660.375,773.388 657.942 C 776.207 656.753,780.921 657.618,783.287 659.760 M834.545 659.455 C 835.895 660.805,837.000 662.380,837.000 662.955 C 837.000 663.604,833.594 664.000,828.000 664.000 C 822.406 664.000,819.000 663.604,819.000 662.955 C 819.000 662.380,820.105 660.805,821.455 659.455 C 823.261 657.648,824.990 657.000,828.000 657.000 C 831.010 657.000,832.739 657.648,834.545 659.455 M937.811 659.039 C 942.066 663.003,940.797 664.000,931.500 664.000 C 922.281 664.000,921.498 663.411,925.455 659.455 C 928.617 656.292,934.646 656.090,937.811 659.039 M1035.000 673.104 C 1035.000 674.197,1033.895 676.195,1032.545 677.545 C 1027.550 682.541,1015.998 679.609,1018.949 674.095 C 1020.160 671.832,1022.158 671.168,1029.000 670.757 C 1034.526 670.424,1035.000 670.609,1035.000 673.104 " stroke="none" fill="var(--theme-color, #33ccbb)" fill-rule="evenodd"/></svg>